<?xml version="1.0" encoding="UTF-8"?><svg id="a" xmlns="http://www.w3.org/2000/svg" xmlns:xlink="http://www.w3.org/1999/xlink" viewBox="0 0 438 438"><defs><style>.e{fill:#fff;}.f{fill:#da7754;}.g{fill:#ff9d20;}.h{fill:#d18f20;}.i{fill:#ffc92a;}.j{fill:url(#b);}</style><linearGradient id="b" x1="174.65" y1="243.78" x2="356.93" y2="290.9" gradientTransform="matrix(1, 0, 0, 1, 0, 0)" gradientUnits="userSpaceOnUse"><stop offset="0" stop-color="#ffae27"/><stop offset=".36" stop-color="#e48142"/></linearGradient></defs><path d="M200.44,438H33.63c-18.57,0-33.63-15.05-33.63-33.63V68.27c0-18.57,15.05-33.63,33.63-33.63h228.68l-61.86,403.36Z" style="fill:url(#b);"/><g id="c"><path d="M165.24,190.4c-4.29-7.71-10.34-13.83-17.99-18.19-7.62-4.33-16.42-6.52-26.17-6.52h-36.13c-3.8,0-7.06,1.29-9.7,3.84s-4.02,5.96-4.02,9.89v122.29c0,3.77,1.37,7.14,3.97,9.75,2.6,2.6,5.98,3.97,9.75,3.97s7.34-1.39,9.89-4.03c2.55-2.64,3.84-5.89,3.84-9.69v-35.24h22.41c9.74,0,18.52-2.12,26.12-6.31,7.66-4.23,13.72-10.2,18.01-17.73,4.27-7.5,6.43-16.12,6.43-25.62s-2.15-18.73-6.41-26.4Zm-44.16,50.07h-22.41v-48.79h22.41c4.78,0,8.83,1.04,12.4,3.18,3.58,2.14,6.31,5.01,8.36,8.75,2.05,3.74,3.08,8.18,3.08,13.19,0,4.63-1.01,8.77-3.04,12.3-2.03,3.58-4.75,6.3-8.31,8.33-3.54,2.02-7.73,3.04-12.48,3.04Z" style="fill:#d18f20;"/></g><g id="d"><path d="M161.24,186.4c-4.29-7.71-10.34-13.83-17.99-18.19-7.62-4.33-16.42-6.52-26.17-6.52h-36.13c-3.8,0-7.06,1.29-9.7,3.84s-4.02,5.96-4.02,9.89v122.29c0,3.77,1.37,7.14,3.97,9.75,2.6,2.6,5.98,3.97,9.75,3.97s7.34-1.39,9.89-4.03c2.55-2.64,3.84-5.89,3.84-9.69v-35.24h22.41c9.74,0,18.52-2.12,26.12-6.31,7.66-4.23,13.72-10.2,18.01-17.73,4.27-7.5,6.43-16.12,6.43-25.62s-2.15-18.73-6.41-26.4Zm-44.16,50.07h-22.41v-48.79h22.41c4.78,0,8.83,1.04,12.4,3.18,3.58,2.14,6.31,5.01,8.36,8.75,2.05,3.74,3.08,8.18,3.08,13.19,0,4.63-1.01,8.77-3.04,12.3-2.03,3.58-4.75,6.3-8.31,8.33-3.54,2.02-7.73,3.04-12.48,3.04Z" style="fill:#fff;"/></g><path d="M402.74,404.59H168.27L270.97,0h131.77c19.48,0,35.26,15.79,35.26,35.26V369.33c0,19.48-15.79,35.26-35.26,35.26Z" style="fill:#ffc92a;"/><g><rect x="275.92" y="143.53" width="110.12" height="23.51" style="fill:#ff9d20;"/><rect x="275.92" y="189.92" width="110.12" height="23.51" style="fill:#ff9d20;"/><rect x="275.92" y="236.32" width="69.29" height="23.51" style="fill:#ff9d20;"/></g><polygon points="168.27 404.59 200.44 438 205.56 404.59 168.27 404.59" style="fill:#da7754;"/></svg>